<?xml version="1.0" standalone="no"?><!DOCTYPE svg PUBLIC "-//W3C//DTD SVG 1.1//EN" "http://www.w3.org/Graphics/SVG/1.1/DTD/svg11.dtd"><svg t="1775794847901" class="icon" viewBox="0 0 1024 1024" version="1.1" xmlns="http://www.w3.org/2000/svg" p-id="13836" xmlns:xlink="http://www.w3.org/1999/xlink" width="200" height="200"><path d="M746.666667 85.333333a192 192 0 0 1 125.909333 336.938667c15.146667 41.258667 23.424 85.888 23.424 132.394667a384 384 0 1 1-768 0c0-46.506667 8.277333-91.136 23.466667-132.394667a192 192 0 1 1 289.749333-245.077333 386.133333 386.133333 0 0 1 141.653333 0A191.744 191.744 0 0 1 746.666667 85.333333zM426.666667 554.666667H341.333333a170.666667 170.666667 0 0 0 341.333334 0h-85.333334a85.333333 85.333333 0 1 1-170.666666 0z" fill="#000000" p-id="13837"></path></svg>